<svg width="22" height="18" viewBox="0 0 22 18" fill="none" xmlns="http://www.w3.org/2000/svg">
<path d="M0 4.5C0 3.25898 0.986563 2.25 2.2 2.25H8.8H10.45H11H19.8C21.0134 2.25 22 3.25898 22 4.5V13.5C22 14.741 21.0134 15.75 19.8 15.75H11H10.45H8.8H2.2C0.986563 15.75 0 14.741 0 13.5V4.5ZM11 4.5V13.5H19.8V4.5H11ZM6.12906 6.18398C6.01906 5.93086 5.77156 5.76562 5.5 5.76562C5.22844 5.76562 4.98094 5.93086 4.87094 6.18398L2.67094 11.2465C2.51625 11.6016 2.67438 12.0164 3.02156 12.1746C3.36875 12.3328 3.77438 12.1711 3.92906 11.816L4.235 11.1094H6.765L7.07094 11.816C7.22563 12.1711 7.63125 12.3293 7.97844 12.1746C8.32563 12.0199 8.48031 11.6016 8.32906 11.2465L6.12906 6.18398ZM5.5 8.19844L6.15313 9.70312H4.84688L5.5 8.19844ZM15.4 5.76562C15.7781 5.76562 16.0875 6.08203 16.0875 6.46875V6.60938H17.6H18.15C18.5281 6.60938 18.8375 6.92578 18.8375 7.3125C18.8375 7.69922 18.5281 8.01562 18.15 8.01562H18.0813L18.0263 8.17383C17.7203 9.03164 17.2563 9.81211 16.665 10.473C16.6959 10.4941 16.7269 10.5117 16.7578 10.5293L17.4075 10.9266C17.7341 11.127 17.8372 11.5594 17.6447 11.8898C17.4522 12.2203 17.0259 12.3293 16.7028 12.1324L16.0531 11.7352C15.8984 11.6402 15.7506 11.5418 15.6028 11.4363C15.2384 11.7 14.85 11.9285 14.4341 12.1184L14.3103 12.1746C13.9631 12.3328 13.5575 12.1711 13.4028 11.816C13.2481 11.4609 13.4063 11.0461 13.7534 10.8879L13.8772 10.8316C14.0972 10.7297 14.3103 10.6172 14.5131 10.4871L14.0938 10.0582C13.8256 9.78398 13.8256 9.3375 14.0938 9.06328C14.3619 8.78906 14.7984 8.78906 15.0666 9.06328L15.5684 9.57656L15.5856 9.59414C16.0119 9.13359 16.3591 8.59922 16.61 8.01211L15.4 8.01562H12.925C12.5469 8.01562 12.2375 7.69922 12.2375 7.3125C12.2375 6.92578 12.5469 6.60938 12.925 6.60938H14.7125V6.46875C14.7125 6.08203 15.0219 5.76562 15.4 5.76562Z" fill="black"/>
</svg>
